<svg xmlns="http://www.w3.org/2000/svg" width="1200" height="750" viewBox="0 0 1200 750" font-family="Arial, sans-serif"><rect width="1200" height="750" fill="#fbf9f7"/><text x="32" y="45" font-size="18" fill="#292623">ARCHIVO / PORTAFOLIO</text><text x="32" y="76" font-size="12" fill="#292623">MOCKUP CONCEPTUAL · CONTENIDO FICTICIO</text><text x="610" y="45" font-size="17" fill="#292623">WORK    TEXTOS    EXPOSICIONES    CV / BIO</text><text x="50" y="155" font-size="38" fill="#292623">Navegación y arquitectura</text><text x="50" y="202" font-size="22" fill="#292623">Organización por períodos, series y proyectos</text><rect x="60" y="290" width="300" height="80" fill="#e8e1db"/><text x="80" y="330.0" font-size="18" fill="#292623">WORK</text><rect x="420" y="290" width="300" height="80" fill="#e8e1db"/><text x="440" y="330.0" font-size="18" fill="#292623">Período A</text><rect x="790" y="290" width="300" height="80" fill="#e8e1db"/><text x="810" y="330.0" font-size="18" fill="#292623">Serie A</text><rect x="790" y="420" width="300" height="80" fill="#e8e1db"/><text x="810" y="460.0" font-size="18" fill="#292623">Serie B</text><rect x="420" y="550" width="300" height="80" fill="#e8e1db"/><text x="440" y="590.0" font-size="18" fill="#292623">Período B</text><g stroke="#98717b" stroke-width="2" fill="none"><path d="M360 330H420M720 330H790M750 330V460H790M390 330V590H420"/></g><text x="790" y="555" font-size="20" fill="#292623">Proyecto → página individual</text></svg>